# xmcd
#
# Track frame offsets:
#	150
#	13857
#	27190
#	42927
#	55225
#	70347
#	81540
#	92552
#	105612
#	118237
#	132310
#
# Disc length: 1904
#
# Revision: 2
# Processed by: cddbd v1.5.1PL0 Copyright (c) Steve Scherf et al.
# Submitted via: CDex 1.40Release
# Normalized: r1:DSETVAR1
#
DISCID=97076e0b
DTITLE=Various Artist - Texas talent volume 4
DYEAR=1996
DGENRE=Country
TTITLE0=Slim Roberts - Hold my love with an open hand
TTITLE1=Mark Chesnutt - Heartache country
TTITLE2=Rusty Lawrence - Loving you ain't easy
TTITLE3=Rusty Lawrence - My foolish pride
TTITLE4=Terrah Sloane - I'll sing you a love song
TTITLE5=George Chambers - Sweet Judy blue eyes
TTITLE6=Kenny Dale - I'm sure I love you
TTITLE7=Kathi Timm/Willie Nelson - Two timing, two stepping cowboy
TTITLE8=Arkey Blue/Gabe Tucker - Gabe's hom
TTITLE9=Terrah Sloane - Another yellow rose of Texas
TTITLE10=Augie Meyers - Deep in the heart of Texas
EXTD=YEAR: 1996 ID3G: 2
EXTT0=
EXTT1=
EXTT2=
EXTT3=
EXTT4=
EXTT5=
EXTT6=
EXTT7=
EXTT8=
EXTT9=
EXTT10=
PLAYORDER=
